PathFileType	4	(X/Y/Z)	C:\Users\mayra\OneDrive - Universitat Pompeu Fabra\PhD_Mayra\OpenSim\aurel\ID_04_Walking_14.trc
DataRate	CameraRate	NumFrames	NumMarkers	Units	OrigDataRate	OrigDataStartFrame	OrigNumFrames
250.00	250.00	19	18	mm	250.00	489	1846
Frame#	Time	r.should			l.should			c7			r.asis			l.asis			sacrum			r.bar1			l.bar1			r.knee1			l.knee1			r.bar2			r.mall			l.bar2			l.mall			r.met			r.heel			l.heel			l.met			
		X1	Y1	Z1	X2	Y2	Z2	X3	Y3	Z3	X4	Y4	Z4	X5	Y5	Z5	X6	Y6	Z6	X7	Y7	Z7	X8	Y8	Z8	X9	Y9	Z9	X10	Y10	Z10	X11	Y11	Z11	X12	Y12	Z12	X13	Y13	Z13	X14	Y14	Z14	X15	Y15	Z15	X16	Y16	Z16	X17	Y17	Z17	X18	Y18	Z18	

1439	5.756000	1303.286791	1244.778633	448.336393	1303.519964	1271.105289	173.721924	1215.057254	1321.823597	305.055499	1398.525715	879.543781	409.525603	1388.602376	868.670225	174.753904	1147.676468	919.284821	284.973323	1304.049611	803.146660	493.340790	1306.552887	763.608336	97.772256	1352.261066	462.183982	422.099650	1383.503795	473.132133	149.221450	1332.790852	398.065180	419.286907	1300.606251	66.788211	381.396919	1351.287127	410.167009	153.282255	1141.195893	172.528446	202.928454	1439.221144	45.601185	365.451217	1248.831153	53.783745	332.851291	1092.343807	198.298991	245.848328	1220.261216	71.121208	212.451160	
1440	5.760000	1307.319403	1245.223045	448.641121	1307.441711	1271.341085	173.948392	1219.032645	1322.119951	305.334598	1402.358055	879.863501	410.167098	1392.452478	869.185507	174.997717	1151.615977	919.677973	285.358340	1307.029009	803.019583	493.518114	1310.740352	764.214456	98.048516	1353.658676	462.040424	422.245622	1390.987754	474.110812	150.148913	1333.893299	397.953123	419.447541	1300.718784	66.809446	381.318450	1359.309554	410.644442	154.186100	1151.813626	170.148015	203.393638	1439.875722	46.024434	365.224928	1248.850584	53.829309	332.826585	1102.657437	195.473865	246.368110	1231.931448	70.162423	212.996244	
1441	5.764000	1311.363935	1245.663404	448.922724	1311.366916	1271.583319	174.185306	1223.007441	1322.394133	305.628002	1406.119585	880.174935	410.812914	1396.294355	869.665921	175.240874	1155.574083	920.044780	285.727978	1310.059905	803.022921	493.796378	1314.873934	764.765441	98.326951	1355.001330	461.903661	422.407568	1398.430824	475.057423	151.074469	1334.933639	397.828281	419.600517	1300.854683	66.824362	381.239772	1367.271781	411.072224	155.104816	1162.296534	167.610437	203.853354	1440.073252	46.118878	365.156949	1248.915672	53.896822	332.758009	1112.967968	192.530945	246.766150	1244.065523	69.268405	213.386193	
1442	5.768000	1315.403938	1246.093869	449.198365	1315.283060	1271.791816	174.380347	1226.997018	1322.650909	305.917680	1409.818172	880.504608	411.408454	1400.083542	870.064139	175.506547	1159.554720	920.363665	286.068082	1312.875390	803.165019	494.081914	1319.026351	765.265107	98.629698	1356.273770	461.771607	422.601938	1405.798435	475.986838	152.010813	1335.942030	397.707582	419.733226	1300.876141	66.927038	381.307214	1375.241280	411.439747	156.024754	1172.879815	164.911076	204.286739	1440.145493	46.127237	365.126491	1248.987436	53.989574	332.651764	1123.311996	189.425528	247.149095	1256.531596	68.375245	213.712126	
1443	5.772000	1319.419622	1246.507645	449.476540	1319.170713	1271.997690	174.568027	1230.965853	1322.870016	306.189537	1413.495302	880.821943	411.950648	1403.919458	870.458543	175.786033	1163.539767	920.662999	286.369503	1315.744638	803.389072	494.356602	1323.060393	765.699625	98.904535	1357.473969	461.625636	422.797561	1413.056374	476.894468	152.989537	1336.971641	397.620648	419.862419	1300.851107	67.054108	381.570816	1383.168578	411.752135	156.993061	1181.091547	161.559224	205.299750	1440.191627	46.111125	365.098119	1249.060631	54.056559	332.559526	1132.868886	186.526120	246.458024	1269.188881	67.464098	214.022294	
1444	5.776000	1323.453903	1246.906042	449.750394	1323.071241	1272.200704	174.749523	1234.917402	1323.068738	306.418449	1417.128563	881.147027	412.430525	1407.775044	870.830297	176.074013	1167.523384	920.936942	286.649376	1318.574429	803.719580	494.729340	1327.110648	766.091704	99.181660	1358.696938	461.485863	423.010558	1420.233965	477.793545	154.003128	1337.975502	397.542775	420.002759	1301.012993	67.009993	381.565064	1390.990257	412.044585	158.000126	1188.797951	157.952368	206.383616	1440.236449	46.093013	365.071058	1249.142051	54.138802	332.459867	1142.305017	183.564156	245.455027	1281.936288	66.530444	214.316010	
1445	5.780000	1327.497721	1247.278690	450.020939	1326.925993	1272.358537	174.914688	1238.918781	1323.247552	306.680113	1420.728922	881.477892	412.903398	1411.646247	871.152282	176.390857	1171.483517	921.162188	286.903828	1321.354508	804.088950	495.077640	1331.225157	766.431093	99.503703	1359.933853	461.353302	423.253298	1427.280426	478.678286	155.042320	1338.951230	397.426307	420.149684	1300.977945	67.144871	381.442875	1398.706317	412.299156	159.006551	1201.396465	155.380011	206.531823	1440.265894	46.067379	365.041465	1249.189854	54.208681	332.397968	1153.676510	179.858536	246.497154	1294.835091	65.581322	214.640945	
1446	5.784000	1331.504822	1247.611165	450.268447	1330.793858	1272.482634	175.066724	1242.892742	1323.395610	306.947172	1424.332619	881.783724	413.335592	1415.574789	871.460021	176.702678	1175.417542	921.372712	287.112296	1324.155807	804.491222	495.384187	1335.285902	766.708851	99.860340	1361.157894	461.181879	423.494399	1434.195042	479.578465	156.077817	1339.897752	397.295773	420.287937	1301.037073	67.196816	381.340027	1406.369448	412.562817	160.000190	1210.543633	151.958898	207.404792	1440.319300	46.051178	365.020812	1249.248028	54.289952	332.323581	1163.759232	176.546887	245.923996	1307.863951	64.613454	214.968458	
1447	5.788000	1335.515141	1247.933388	450.501472	1334.667921	1272.596121	175.208822	1246.874809	1323.513746	307.203889	1427.927613	882.081211	413.739532	1419.551492	871.729136	177.013680	1179.356933	921.546042	287.279278	1327.062607	804.924250	495.676786	1339.361429	766.893148	100.199141	1362.365603	460.961998	423.721492	1440.963030	480.520248	157.126814	1340.811133	397.177160	420.414597	1301.142454	67.224532	381.225049	1413.994789	412.820190	160.950571	1226.060152	150.637180	205.745220	1440.372944	46.030477	365.004122	1249.289989	54.370888	332.247555	1175.567389	172.261849	247.377619	1320.993066	63.622564	215.279832	
1448	5.792000	1339.545012	1248.225808	450.734794	1338.539124	1272.686005	175.356925	1250.856638	1323.638439	307.417154	1431.504250	882.340193	414.167047	1423.545599	871.968865	177.335933	1183.321953	921.687961	287.400544	1330.106258	805.318773	495.916218	1343.379498	767.047405	100.489229	1363.611579	460.748702	423.954129	1447.577238	481.478304	158.199579	1341.712713	397.067279	420.534074	1301.272273	67.273773	381.100893	1421.548843	413.148403	161.843047	1239.560246	150.179565	202.997714	1440.434098	46.006341	364.978194	1249.330878	54.433681	332.168102	1185.359716	168.406516	246.655941	1334.238648	62.633932	215.634704	
1449	5.796000	1343.578219	1248.485327	450.965643	1342.375159	1272.726536	175.486386	1254.812956	1323.743582	307.648182	1435.053468	882.570684	414.592087	1427.601099	872.187793	177.644938	1187.296510	921.804011	287.483126	1333.070397	805.612683	496.168554	1347.338438	767.157435	100.758493	1364.837766	460.532010	424.181014	1454.062939	482.441127	159.242511	1342.629671	396.960497	420.658201	1301.411390	67.314990	380.952418	1428.954363	413.580179	162.728131	1249.286056	146.510750	204.252601	1440.501571	45.983046	364.947617	1249.383092	54.506302	332.095206	1196.239471	164.509982	246.728599	1347.698450	61.671078	215.605259	
1450	5.800000	1347.601771	1248.704314	451.186150	1346.235156	1272.725582	175.609440	1258.780360	1323.787689	307.898700	1438.662171	882.781982	415.041864	1431.687474	872.357547	177.971706	1191.269398	921.869218	287.525058	1336.270809	805.893958	496.350259	1351.390004	767.216802	101.054534	1366.061091	460.310072	424.410343	1460.404634	483.437002	160.295159	1343.575954	396.860778	420.797020	1301.555991	67.363285	380.801141	1436.302423	414.067388	163.573936	1258.402348	142.186895	206.331432	1440.566421	45.950301	364.910364	1249.462843	54.609090	331.981778	1207.593679	160.347939	247.101039	1361.331582	60.724895	215.121984	
1451	5.804000	1351.623058	1248.885870	451.401591	1350.066066	1272.701740	175.730154	1262.778759	1323.779345	308.118373	1442.297935	882.948816	415.544480	1435.847282	872.510374	178.293467	1195.282698	921.863616	287.523836	1339.663506	806.155741	496.610850	1355.499268	767.253458	101.382330	1367.285609	460.089773	424.604088	1466.600657	484.402746	161.321253	1344.580650	396.754324	420.910120	1301.689625	67.406990	380.642891	1443.543673	414.601505	164.405882	1274.927974	142.136291	203.607529	1440.462351	46.204485	365.377545	1249.939561	54.332778	331.623256	1219.269276	155.656874	247.489542	1374.901295	59.750982	215.288892	
1452	5.808000	1355.643511	1249.038458	451.609552	1353.930354	1272.652149	175.841555	1266.768456	1323.754311	308.327317	1445.973396	883.075058	416.073650	1440.080404	872.648180	178.627342	1199.238062	921.833634	287.475467	1342.863679	806.288183	496.881008	1359.616995	767.238855	101.712190	1368.534327	459.901631	424.775988	1472.668171	485.325307	162.299439	1345.613241	396.634996	420.983493	1301.815867	67.453913	380.468488	1450.637937	415.169716	165.218353	1288.164020	140.103728	203.325137	1440.450191	46.882950	366.207987	1250.841141	53.672042	330.992997	1231.085062	150.931627	247.375518	1388.520241	58.822125	215.644106	
1453	5.812000	1359.666586	1249.162436	451.795161	1357.799172	1272.568107	175.952032	1270.740986	1323.722720	308.537513	1449.665904	883.141100	416.587234	1444.330931	872.751892	178.961515	1203.142405	921.769321	287.387758	1346.035719	806.294501	497.112155	1363.787889	767.183900	101.998121	1369.807243	459.726989	424.935788	1478.583813	486.201167	163.261279	1346.680880	396.539778	421.041727	1301.950455	67.512862	380.283505	1457.573414	415.747672	166.045934	1300.571084	137.048185	203.248560	1441.401958	47.203917	365.547746	1251.038194	53.632416	330.743492	1242.870092	146.574914	247.517616	1402.256489	57.943080	216.076449	
1454	5.816000	1363.713026	1249.262094	451.978862	1361.657977	1272.439361	176.041380	1274.734735	1323.674917	308.748662	1453.357458	883.165121	417.143673	1448.592305	872.809887	179.303110	1207.087874	921.655536	287.251890	1349.598885	806.403279	497.303069	1367.887378	767.136455	102.255613	1371.127367	459.531099	425.055087	1484.382033	487.018228	164.221168	1347.822309	396.468282	421.093106	1302.090406	67.581013	380.093008	1464.689851	416.201174	166.809976	1312.946200	134.209275	203.630209	1441.838384	46.959475	364.807874	1251.163363	53.703632	330.503523	1254.641294	142.355382	247.922510	1416.082382	57.134014	216.524869	
1455	5.820000	1367.764473	1249.336243	452.164590	1365.484715	1272.275209	176.124662	1278.693199	1323.569179	308.929950	1457.047701	883.118153	417.749763	1452.894807	872.839570	179.669827	1211.082220	921.479225	287.082165	1353.205681	806.407154	497.460634	1373.241663	766.925752	103.146136	1372.458696	459.335506	425.126493	1490.076542	487.769604	165.157005	1349.062920	396.370053	421.131432	1302.245259	67.648545	379.896879	1471.955895	416.398227	167.518675	1325.311422	130.975112	203.716889	1441.164374	46.078425	364.591658	1251.284003	53.842232	330.272496	1266.101599	138.197601	248.780072	1430.008411	56.405436	216.984823	
1456	5.824000	1371.831417	1249.352813	452.348351	1369.336247	1272.074223	176.205173	1282.709837	1323.412299	309.095442	1460.791588	883.043885	418.346643	1457.211137	872.814178	180.080041	1215.069771	921.266973	286.890835	1356.715322	806.307316	497.646928	1379.928589	766.571522	104.756124	1373.848200	459.170014	425.199270	1495.621681	488.464594	166.070625	1350.364923	396.258324	421.137035	1302.412748	67.716092	379.706204	1478.496790	416.739166	168.393716	1337.775588	128.139228	204.106688	1441.063762	45.830596	364.446044	1251.405001	53.978894	330.040783	1277.339458	133.942902	249.565840	1443.996429	55.752739	217.433229	
1457	5.828000	1375.847697	1249.322295	452.521503	1373.201013	1271.842122	176.286250	1286.709189	1323.245525	309.273064	1464.571357	882.916510	418.922752	1461.503267	872.737288	180.501074	1219.060898	921.027660	286.675334	1360.467196	806.220829	497.721016	1384.383678	766.423821	105.112210	1375.368118	459.013104	425.269604	1501.066089	489.080310	166.957259	1351.687193	396.134257	421.126157	1302.574396	67.793533	379.506320	1484.786391	417.059958	169.291586	1350.311160	124.950439	204.192609	1441.025734	45.741480	364.401460	1251.476288	54.116093	329.862714	1289.645195	129.814178	249.691784	1458.138585	55.295162	217.972681	
